#N canvas 741 286 574 437 10;
#X obj 32 20 vsl 15 128 0 127 0 0 empty empty empty 0 -9 0 10 -262144
-1 -1 9400 1;
#X floatatom 30 158 5 0 0 0 - - -;
#X obj 66 57 minuit.num /node1/subnode1/control 11 float 0 127;
#X msg 108 22 edit;
#X obj 422 23 minuit.device 9998;
#X obj 37 199 vsl 15 128 0 127 0 0 empty empty empty 0 -9 0 10 -262144
-1 -1 10040 1;
#X floatatom 35 337 5 0 0 0 - - -;
#X msg 121 204 edit;
#X obj 71 236 minuit.num /node1/subnode2/control 11 float 0 127;
#X obj 73 268 - 0.1;
#X obj 66 200 + 0.1;
#X obj 423 69 i-score.transport;
#X connect 0 0 1 0;
#X connect 0 0 2 0;
#X connect 2 0 0 0;
#X connect 3 0 2 0;
#X connect 5 0 6 0;
#X connect 5 0 10 0;
#X connect 7 0 8 0;
#X connect 8 0 9 0;
#X connect 9 0 5 0;
#X connect 10 0 8 0;
