#N canvas 70 278 517 314 10;
#X obj 303 128 makefilename /Transport/%s;
#X obj 302 99 symbol;
#X msg 231 27 Play;
#X msg 265 27 Pause;
#X msg 304 27 Stop;
#X obj 298 273 s GLOBAL-MINUIT-TRANSPORT;
#X msg 348 27 Next;
#X msg 175 27 Rewind;
#X obj 22 82 list split 2;
#X obj 22 16 inlet;
#X obj 191 190 makefilename /%s;
#X obj 191 163 l2s /;
#X obj 22 241 prepend /Transport/Speed;
#X obj 22 115 list trim;
#X obj 22 146 route Speed StartPoint;
#X obj 86 215 prepend /Transport/StartPoint;
#X obj 323 178 dumpOSC 9999;
#X obj 317 215 print;
#X obj 384 66 minuit.device 9998;
#X connect 0 0 5 0;
#X connect 1 0 0 0;
#X connect 1 0 17 0;
#X connect 2 0 1 0;
#X connect 3 0 1 0;
#X connect 4 0 1 0;
#X connect 6 0 1 0;
#X connect 7 0 1 0;
#X connect 8 0 13 0;
#X connect 8 2 1 0;
#X connect 9 0 8 0;
#X connect 10 0 5 0;
#X connect 11 0 10 0;
#X connect 12 0 5 0;
#X connect 13 0 14 0;
#X connect 14 0 12 0;
#X connect 14 1 15 0;
#X connect 14 2 11 0;
#X connect 15 0 5 0;
#X connect 16 0 17 0;
