#N canvas 26 440 574 437 10;
#X obj 33 4 vsl 15 128 0 127 0 0 empty empty empty 0 -9 0 10 -262144
-1 -1 0 1;
#X floatatom 31 142 5 0 0 0 - - -;
#X obj 67 41 minuit.num /node1/subnode1/control 11 float 0 127;
#X obj 126 98 minuit.sym /node1/subnode2/param hello symbol;
#X obj 151 144 minuit.any /node2/subthing1/subsub/troncol anything
;
#X obj 103 120 print SYM;
#X obj 113 168 print ANY;
#X obj 148 229 print NUM;
#X obj 176 189 minuit.num /node2/subthing2/subsub/marap 44 float 0
127;
#X msg 175 71 edit;
#X msg 205 122 edit;
#X msg 223 166 edit;
#X msg 109 6 edit;
#X obj 388 23 minuit.device 9998;
#X obj 37 252 vsl 15 128 0 127 0 0 empty empty empty 0 -9 0 10 -262144
-1 -1 0 1;
#X floatatom 35 390 5 0 0 0 - - -;
#X msg 121 257 edit;
#X obj 71 289 minuit.num /node1/subnode2/control 11 float 0 127;
#X obj 73 321 - 0.1;
#X obj 66 253 + 0.1;
#X obj 412 287 dumpOSC 8000;
#X obj 412 310 print;
#X connect 0 0 1 0;
#X connect 0 0 2 0;
#X connect 2 0 0 0;
#X connect 3 0 5 0;
#X connect 4 0 6 0;
#X connect 8 0 7 0;
#X connect 9 0 3 0;
#X connect 10 0 4 0;
#X connect 11 0 8 0;
#X connect 12 0 2 0;
#X connect 14 0 15 0;
#X connect 14 0 19 0;
#X connect 16 0 17 0;
#X connect 17 0 18 0;
#X connect 18 0 14 0;
#X connect 19 0 17 0;
#X connect 20 0 21 0;
