#N canvas 840 309 542 466 10;
#X obj 48 18 inlet;
#X obj 195 56 r \$1-get;
#X obj 17 256 outlet;
#X obj 18 138 r \$1;
#X obj 75 178 any;
#N canvas 509 596 328 232 \$0-loadbangs 0;
#X obj 50 28 loadbang;
#X obj 11 123 symbol \$1;
#X obj 50 49 t b b b b b;
#X obj 188 146 s \$0-type;
#X obj 11 167 s \$0-name;
#X obj 82 167 s \$0-value;
#X obj 188 123 symbol \$2;
#X obj 82 123 symbol not_given;
#N canvas 243 621 261 209 \$0-slash 0;
#X obj 14 44 s2l /;
#X obj 14 66 l2s /;
#X text 52 54 remove first / if it's there;
#X obj 15 147 l2s;
#X msg 41 130 symbol;
#X obj 14 87 t a b;
#X obj 14 109 prepend /;
#X text 90 115 make sure there's one;
#X obj 14 22 inlet;
#X obj 15 170 outlet;
#X connect 0 0 1 0;
#X connect 1 0 5 0;
#X connect 3 0 9 0;
#X connect 4 0 3 1;
#X connect 5 0 6 0;
#X connect 5 1 4 0;
#X connect 6 0 3 0;
#X connect 8 0 0 0;
#X restore 3 145 pd \$0-slash;
#X connect 0 0 2 0;
#X connect 1 0 8 0;
#X connect 2 0 1 0;
#X connect 2 1 7 0;
#X connect 2 2 6 0;
#X connect 6 0 3 0;
#X connect 7 0 5 0;
#X connect 8 0 4 0;
#X restore 24 425 pd \$0-loadbangs;
#X obj 234 158 any;
#X obj 249 136 r \$0-value;
#X msg 327 180 type;
#X obj 347 202 symbol;
#X obj 380 180 r \$0-type;
#N canvas 1166 687 213 184 \$0-send-gets 0;
#X obj 17 100 l2s :;
#X obj 17 121 list;
#X obj 17 144 s GLOBAL-MINUIT-GET;
#X obj 50 36 r \$0-name;
#X obj 17 57 symbol;
#X obj 17 16 inlet;
#X obj 101 62 inlet;
#X obj 134 104 inlet;
#X obj 17 79 list;
#X connect 0 0 1 0;
#X connect 1 0 2 0;
#X connect 3 0 4 1;
#X connect 4 0 8 0;
#X connect 5 0 4 0;
#X connect 6 0 8 1;
#X connect 7 0 1 1;
#X connect 8 0 0 0;
#X restore 195 342 pd \$0-send-gets;
#X obj 308 158 t b b b;
#X obj 361 369 r UPDATE-MINUIT-CONTROLS;
#X obj 361 435 s GLOBAL-MINUIT-CONTROLS;
#X obj 394 390 r \$0-name;
#X obj 361 412 symbol;
#X obj 195 136 t b b b;
#X obj 195 79 route bang;
#X obj 48 40 route edit;
#X obj 48 82 s pd-\$0-edit;
#N canvas 503 55 362 150 \$0-edit 0;
#X obj 16 95 s \$0-value;
#X obj 253 121 s \$0-type;
#X obj 253 104 symbol;
#X symbolatom 283 58 10 0 0 0 - #0-dummy #0-dummy-sent;
#X obj 91 88 r \$0-name;
#X text 294 36 type;
#X obj 91 122 s \$0-name-cnv;
#X msg 91 105 label \$1;
#X obj 16 78 any;
#X obj 253 87 r \$0-dummy-sent;
#X obj 179 122 s \$0-dummy;
#X obj 179 88 r \$0-type;
#X obj 179 105 prepend set;
#X obj 16 19 r \$0-value;
#X obj 16 36 prepend set;
#X obj 13 12 cnv 15 75 42 empty empty empty 20 12 0 14 -262144 -66577
0;
#X text 14 34 "value";
#X obj 17 10 cnv 15 100 15 empty \$0-name-cnv / 0 7 0 14 -262144 -66577
0;
#X obj 8 77 cnv 15 350 65 empty empty empty 20 12 0 14 -262144 -66577
0;
#X text 59 34 (enter edit-mode to edit \, then send);
#X msg 16 57 not_given;
#X connect 2 0 1 0;
#X connect 4 0 7 0;
#X connect 7 0 6 0;
#X connect 8 0 0 0;
#X connect 9 0 2 0;
#X connect 11 0 12 0;
#X connect 12 0 10 0;
#X connect 13 0 14 0;
#X connect 14 0 20 0;
#X connect 20 0 8 0;
#X restore 26 397 pd \$0-edit;
#X obj 97 131 r \$0-value;
#X obj 75 218 s \$0-value;
#X obj 252 101 sel value type;
#X text 219 17 arguments: name type;
#X obj 253 56 r /\$1-get;
#X obj 51 138 r /\$1;
#X msg 48 61 vis 1;
#X msg 214 180 value;
#X obj 63 313 cnv 15 110 15 empty empty empty 20 12 0 14 -258113 -66577
0;
#X text 64 311 this needs zexy !!;
#X connect 0 0 19 0;
#X connect 1 0 18 0;
#X connect 3 0 4 0;
#X connect 4 0 2 0;
#X connect 4 0 23 0;
#X connect 6 0 11 2;
#X connect 7 0 6 1;
#X connect 8 0 11 1;
#X connect 9 0 11 2;
#X connect 10 0 9 1;
#X connect 12 0 11 0;
#X connect 12 1 8 0;
#X connect 12 2 9 0;
#X connect 13 0 16 0;
#X connect 15 0 16 1;
#X connect 16 0 14 0;
#X connect 17 0 11 0;
#X connect 17 1 29 0;
#X connect 17 2 6 0;
#X connect 18 0 17 0;
#X connect 18 1 24 0;
#X connect 19 0 28 0;
#X connect 19 1 23 0;
#X connect 22 0 4 1;
#X connect 24 0 17 0;
#X connect 24 1 12 0;
#X connect 26 0 18 0;
#X connect 27 0 4 0;
#X connect 28 0 20 0;
#X connect 29 0 11 1;
