#N canvas 1 90 755 710 10;
#X declare -path ../osc;
#X declare -path ../osc;
#X declare -path ../osc;
#X declare -path ../osc;
#X declare -path ../osc;
#X declare -path ../osc;
#X declare -path ../osc;
#X declare -path ../osc;
#X declare -path ../osc;
#X declare -path ../osc;
#X declare -path ../osc;
#X declare -path ../osc;
#X obj 10 325 openpanel;
#X obj 271 255 bng 15 250 50 0 empty empty empty 17 7 0 10 -262144
-1 -1;
#X obj 271 275 tgl 15 0 empty empty loop 17 7 0 10 -262144 -1 -1 0
1;
#X obj 10 347 symbol;
#X obj 57 347 oscparam /video_player/\$1/file;
#X obj 343 275 oscparam /video_player/\$1/loop;
#X obj 317 499 oscparam /video_player/\$1/scale/x;
#X floatatom 281 500 5 0 0 0 x - -, f 5;
#X floatatom 281 520 5 0 0 0 y - -, f 5;
#X floatatom 281 540 5 0 0 0 z - -, f 5;
#X obj 317 519 oscparam /video_player/\$1/scale/y;
#X obj 317 539 oscparam /video_player/\$1/scale/z;
#X text 262 482 scale;
#X floatatom 281 420 5 0 0 0 x - -, f 5;
#X floatatom 281 440 5 0 0 0 y - -, f 5;
#X floatatom 281 460 5 0 0 0 z - -, f 5;
#X text 262 402 position;
#X obj 317 419 oscparam /video_player/\$1/position/x;
#X obj 317 439 oscparam /video_player/\$1/position/y;
#X obj 317 459 oscparam /video_player/\$1/position/z;
#X floatatom 281 320 5 0 1 0 r - -, f 5;
#X floatatom 281 340 5 0 1 0 g - -, f 5;
#X floatatom 281 360 5 0 1 0 b - -, f 5;
#X floatatom 281 380 5 0 1 0 a - -, f 5;
#X obj 317 319 oscparam /video_player/\$1/color/r;
#X obj 317 339 oscparam /video_player/\$1/color/g;
#X obj 317 359 oscparam /video_player/\$1/color/b;
#X obj 317 379 oscparam /video_player/\$1/color/a;
#X text 261 302 color;
#X text 288 255 open;
#X obj 343 255 f;
#X symbolatom 10 369 10 0 0 0 - - -, f 10;
#X connect 0 0 3 0;
#X connect 1 0 0 0;
#X connect 2 0 30 0;
#X connect 3 0 4 0;
#X connect 3 0 31 0;
#X connect 4 0 3 0;
#X connect 5 0 30 0;
#X connect 6 0 7 0;
#X connect 7 0 6 0;
#X connect 8 0 10 0;
#X connect 9 0 11 0;
#X connect 10 0 8 0;
#X connect 11 0 9 0;
#X connect 13 0 17 0;
#X connect 14 0 18 0;
#X connect 15 0 19 0;
#X connect 17 0 13 0;
#X connect 18 0 14 0;
#X connect 19 0 15 0;
#X connect 20 0 24 0;
#X connect 21 0 25 0;
#X connect 22 0 26 0;
#X connect 23 0 27 0;
#X connect 24 0 20 0;
#X connect 25 0 21 0;
#X connect 26 0 22 0;
#X connect 27 0 23 0;
#X connect 30 0 5 0;
