#N canvas 646 116 391 326 10;
#X declare -path ../osc;
#X declare -path ../osc;
#X declare -path ../osc;
#X declare -path ../osc;
#X declare -path ../osc;
#X declare -path ../osc;
#X declare -path ../osc;
#X declare -path ../osc;
#X declare -path ../osc;
#X declare -path ../osc;
#X declare -path ../osc;
#X symbolatom 80 27 20 0 0 0 - - -, f 20;
#X obj 206 26 oscparam /text/\$1/text;
#X floatatom 80 51 5 0 1 0 r - -, f 5;
#X floatatom 80 71 5 0 1 0 g - -, f 5;
#X floatatom 80 91 5 0 1 0 b - -, f 5;
#X floatatom 80 111 5 0 1 0 a - -, f 5;
#X obj 116 70 oscparam /text/\$1/color/g;
#X obj 116 90 oscparam /text/\$1/color/b;
#X obj 116 110 oscparam /text/\$1/color/a;
#X obj 116 230 oscparam /text/\$1/scale/x;
#X floatatom 80 231 5 0 0 0 x - -, f 5;
#X floatatom 80 251 5 0 0 0 y - -, f 5;
#X floatatom 80 271 5 0 0 0 z - -, f 5;
#X obj 116 250 oscparam /text/\$1/scale/y;
#X obj 116 270 oscparam /text/\$1/scale/z;
#X text 61 213 scale;
#X floatatom 80 151 5 0 0 0 x - -, f 5;
#X floatatom 80 171 5 0 0 0 y - -, f 5;
#X floatatom 80 191 5 0 0 0 z - -, f 5;
#X text 61 133 position;
#X obj 116 150 oscparam /text/\$1/position/x;
#X obj 116 170 oscparam /text/\$1/position/y;
#X obj 116 190 oscparam /text/\$1/position/z;
#X obj 116 50 oscparam /text/\$1/color/r;
#X connect 0 0 1 0;
#X connect 1 0 0 0;
#X connect 2 0 23 0;
#X connect 3 0 6 0;
#X connect 4 0 7 0;
#X connect 5 0 8 0;
#X connect 6 0 3 0;
#X connect 7 0 4 0;
#X connect 8 0 5 0;
#X connect 9 0 10 0;
#X connect 10 0 9 0;
#X connect 11 0 13 0;
#X connect 12 0 14 0;
#X connect 13 0 11 0;
#X connect 14 0 12 0;
#X connect 16 0 20 0;
#X connect 17 0 21 0;
#X connect 18 0 22 0;
#X connect 20 0 16 0;
#X connect 21 0 17 0;
#X connect 22 0 18 0;
#X connect 23 0 2 0;
