#N canvas 376 388 574 424 10;
#X declare -path ../osc;
#X obj 319 33 inlet;
#X obj 319 113 s to_i-score;
#X obj 318 154 r from_i-score;
#X obj 318 288 outlet;
#X obj 319 73 list prepend \$1;
#X obj 319 93 list trim;
#X floatatom 356 36 5 0 0 0 - - -, f 5;
#X symbolatom 391 36 10 0 0 0 - - -, f 10;
#X obj 375 255 spigot;
#X obj 260 204 tgl 15 0 empty empty empty 17 7 0 10 -262144 -1 -1 0
1;
#X obj 375 295 print from_i-score;
#X obj 318 176 route get, f 10;
#X obj 319 8 declare -path ../osc;
#X obj 375 196 routeOSC \$1;
#X obj 273 247 del;
#X obj 273 207 random 500;
#X obj 273 227 * 3;
#N canvas 1 92 626 300 seed 0;
#X obj 166 19 loadbang;
#X obj 166 62 symbol \$1;
#X obj 166 84 list fromsymbol;
#X obj 166 147 t b f;
#X obj 179 126 list;
#X obj 166 105 list split 1;
#X obj 198 197 f;
#X obj 198 176 +;
#X msg 198 219 seed \$1;
#X obj 166 41 t b b;
#X msg 213 148 0;
#X obj 198 257 outlet;
#X text 281 48 this create a random seed based on abstraction argument
;
#X connect 0 0 9 0;
#X connect 1 0 2 0;
#X connect 2 0 5 0;
#X connect 3 0 4 0;
#X connect 3 1 7 0;
#X connect 4 0 5 0;
#X connect 5 0 3 0;
#X connect 5 1 4 1;
#X connect 6 0 7 1;
#X connect 6 0 8 0;
#X connect 7 0 6 0;
#X connect 8 0 11 0;
#X connect 9 0 1 0;
#X connect 9 1 10 0;
#X connect 10 0 7 1;
#X restore 256 164 pd seed;
#X text 28 205 this is a little delay to avoid crash;
#X text 43 226 this is a bug \, already reported :;
#X text 1 244 https://github.com/i-score/i-score/issues/51;
#X connect 0 0 4 0;
#X connect 2 0 11 0;
#X connect 4 0 5 0;
#X connect 5 0 1 0;
#X connect 6 0 4 0;
#X connect 7 0 4 0;
#X connect 8 0 10 0;
#X connect 9 0 8 1;
#X connect 11 0 3 0;
#X connect 11 0 15 0;
#X connect 11 1 13 0;
#X connect 13 0 8 0;
#X connect 13 0 3 0;
#X connect 14 0 3 0;
#X connect 15 0 16 0;
#X connect 16 0 14 0;
#X connect 17 0 15 0;
