#N canvas 575 142 450 300 10;
#X declare -stdpath osc -stdpath iemnet -lib iemnet -path abs;
#X declare -path ../osc;
#X declare -path ../osc;
#X declare -path ../osc;
#N canvas 542 145 418 579 OSC 0;
#X obj 41 427 s from_i-score;
#X obj 252 52 r to_i-score;
#X obj 195 192 loadbang;
#X obj 133 166 spigot;
#X obj 152 291 tgl 15 0 empty empty empty 17 7 0 10 -262144 -1 -1 0
1;
#X msg 195 212 connect 127.0.0.1 9996;
#X obj 252 156 spigot;
#X obj 285 137 tgl 15 0 empty empty empty 17 7 0 10 -262144 -1 -1 0
1;
#X obj 252 176 print to_i-score;
#X obj 106 450 spigot;
#X obj 139 431 tgl 15 0 empty empty empty 17 7 0 10 -262144 -1 -1 0
1;
#X obj 106 490 print from_i-score;
#X obj 133 260 t f f f;
#X obj 133 121 list prepend send;
#X obj 133 143 list trim;
#X obj 133 315 sel 1;
#X msg 41 346 get;
#X obj 133 100 packOSC;
#X obj 106 402 unpackOSC;
#X obj 65 28 inlet;
#X obj 65 49 t b b b;
#X msg 103 70 [;
#X msg 53 70 ];
#X text 69 347 bang all parameters to expose them to i-score;
#X obj 208 287 sel 0;
#X obj 208 309 del 1000;
#X msg 105 196 disconnect;
#X obj 133 240 udpsend;
#X obj 106 382 udpreceive 9997;
#X text 53 526 with Pd >= 0-46 \, you can use [netreceive -b -u 9997]
and;
#X text 50 542 [netsend -b -u] instead of [udpreceive 9997] / [udpsend]
;
#X connect 1 0 6 0;
#X connect 1 0 17 0;
#X connect 2 0 5 0;
#X connect 3 0 27 0;
#X connect 5 0 27 0;
#X connect 6 0 8 0;
#X connect 7 0 6 1;
#X connect 9 0 11 0;
#X connect 10 0 9 1;
#X connect 12 0 15 0;
#X connect 12 1 4 0;
#X connect 12 1 24 0;
#X connect 12 2 3 1;
#X connect 13 0 14 0;
#X connect 14 0 3 0;
#X connect 16 0 0 0;
#X connect 17 0 13 0;
#X connect 18 0 9 0;
#X connect 18 0 0 0;
#X connect 19 0 20 0;
#X connect 20 0 22 0;
#X connect 20 1 16 0;
#X connect 20 2 21 0;
#X connect 24 0 25 0;
#X connect 25 0 5 0;
#X connect 26 0 27 0;
#X connect 27 0 12 0;
#X connect 28 0 18 0;
#X restore 38 58 pd OSC;
#X floatatom 128 147 5 0 0 0 x - -, f 5;
#X text 34 8 You need mrpeach/osc and iemnet or mrpeach/net objects
to use this patch.;
#X obj 37 36 declare -stdpath osc -stdpath iemnet -lib iemnet -path
abs;
#X floatatom 128 167 5 0 0 0 y - -, f 5;
#X obj 164 196 oscparam /name;
#X symbolatom 95 197 10 0 0 0 - - -, f 10;
#X obj 164 216 symbol;
#X text 62 91 Open the 01-simple_example.score with i-score.;
#X text 62 111 Then press play in i-score \, you should see some changes
here!;
#X obj 164 166 oscparam /position/y;
#X obj 164 146 oscparam /position/x;
#X connect 1 0 11 0;
#X connect 4 0 10 0;
#X connect 5 0 7 0;
#X connect 6 0 5 0;
#X connect 7 0 6 0;
#X connect 10 0 4 0;
#X connect 11 0 1 0;
