#N canvas 29 687 450 344 10;
#X declare -path ../osc;
#X declare -path ../osc;
#X declare -path ../osc;
#X declare -path ../osc;
#X declare -path ../osc;
#X declare -path ../osc;
#X declare -path ../osc;
#X declare -path ../osc;
#X declare -path ../osc;
#X declare -path ../osc;
#X declare -path ../osc;
#X declare -path ../osc;
#X declare -path ../osc;
#X declare -path ../osc;
#X declare -path ../osc;
#X declare -path ../osc;
#X declare -path ../osc;
#X declare -path ../osc;
#X declare -path ../osc;
#X declare -path ../osc;
#X declare -path ../osc;
#X declare -path ../osc;
#X declare -path ../osc;
#X declare -path ../osc;
#X declare -path ../osc;
#X declare -path ../osc;
#X declare -path ../osc;
#X declare -path ../osc;
#X declare -path ../osc;
#X declare -path ../osc;
#X declare -path ../osc;
#X declare -path ../osc;
#X declare -path ../osc;
#X declare -path ../osc;
#X declare -path ../osc;
#X declare -path ../osc;
#X declare -path ../osc;
#X declare -path ../osc;
#X declare -path ../osc;
#X declare -path ../osc;
#X declare -path ../osc;
#X declare -path ../osc;
#X declare -path ../osc;
#X declare -path ../osc;
#X declare -path ../osc;
#X declare -path ../osc;
#X declare -path ../osc;
#X declare -path ../osc;
#X declare -path ../osc;
#X declare -path ../osc;
#X declare -path ../osc;
#X declare -path ../osc;
#X declare -path ../osc;
#X declare -path ../osc;
#X declare -path ../osc;
#X declare -path ../osc;
#X declare -path ../osc;
#X declare -path ../osc;
#X declare -path ../osc;
#X declare -path ../osc;
#X declare -path ../osc;
#X declare -path ../osc;
#X declare -path ../osc;
#X declare -path ../osc;
#X declare -path ../osc;
#X declare -path ../osc;
#X declare -path ../osc;
#X declare -path ../osc;
#X declare -path ../osc;
#X declare -path ../osc;
#X declare -path ../osc;
#X declare -path ../osc;
#X declare -path ../osc;
#X declare -path ../osc;
#X declare -path ../osc;
#X declare -path ../osc;
#X declare -path ../osc;
#X declare -path ../osc;
#X declare -path ../osc;
#X declare -path ../osc;
#X declare -path ../osc;
#X declare -path ../osc;
#X declare -path ../osc;
#X declare -path ../osc;
#X declare -path ../osc;
#X declare -path ../osc;
#X declare -path ../osc;
#X declare -path ../osc;
#X declare -path ../osc;
#X declare -path ../osc;
#X declare -path ../osc;
#X declare -path ../osc;
#X declare -path ../osc;
#X declare -path ../osc;
#X declare -path ../osc;
#X declare -path ../osc;
#X declare -path ../osc;
#X declare -path ../osc;
#X declare -path ../osc;
#X declare -path ../osc;
#X declare -path ../osc;
#X declare -path ../osc;
#X declare -path ../osc;
#X declare -path ../osc;
#X declare -path ../osc;
#X declare -path ../osc;
#X declare -path ../osc;
#X declare -path ../osc;
#X declare -path ../osc;
#X declare -path ../osc;
#X declare -path ../osc;
#X declare -path ../osc;
#X declare -path ../osc;
#X declare -path ../osc;
#X declare -path ../osc;
#X declare -path ../osc;
#X declare -path ../osc;
#X declare -path ../osc;
#X declare -path ../osc;
#X declare -path ../osc;
#X declare -path ../osc;
#X declare -path ../osc;
#X declare -path ../osc;
#X declare -path ../osc;
#X declare -path ../osc;
#X declare -path ../osc;
#X declare -path ../osc;
#X declare -path ../osc;
#X declare -path ../osc;
#X declare -path ../osc;
#X declare -path ../osc;
#X declare -path ../osc;
#X declare -path ../osc;
#X declare -path ../osc;
#X declare -path ../osc;
#X declare -path ../osc;
#X declare -path ../osc;
#X declare -path ../osc;
#X declare -path ../osc;
#X declare -path osc -path iemnet -lib iemnet -path abs;
#X declare -path ../osc;
#X declare -path ../osc;
#N canvas 608 294 418 579 OSC 1;
#X obj 41 427 s from_i-score;
#X obj 252 52 r to_i-score;
#X obj 195 192 loadbang;
#X obj 133 166 spigot;
#X obj 152 291 tgl 15 0 empty empty empty 17 7 0 10 -262144 -1 -1 1
1;
#X msg 195 212 connect 127.0.0.1 9996;
#X obj 252 156 spigot;
#X obj 285 137 tgl 15 0 empty empty empty 17 7 0 10 -262144 -1 -1 0
1;
#X obj 252 176 print to_i-score;
#X obj 106 450 spigot;
#X obj 139 431 tgl 15 0 empty empty empty 17 7 0 10 -262144 -1 -1 0
1;
#X obj 106 490 print from_i-score;
#X obj 133 260 t f f f;
#X obj 133 121 list prepend send;
#X obj 133 143 list trim;
#X obj 133 315 sel 1;
#X msg 41 346 get;
#X obj 133 100 packOSC;
#X obj 106 402 unpackOSC;
#X obj 65 28 inlet;
#X obj 65 49 t b b b;
#X msg 103 70 [;
#X msg 53 70 ];
#X text 69 347 bang all parameters to expose them to i-score;
#X obj 208 287 sel 0;
#X obj 208 309 del 1000;
#X msg 105 196 disconnect;
#X obj 133 240 udpsend;
#X obj 106 382 udpreceive 9997;
#X text 53 526 with Pd >= 0-46 \, you can use [netreceive -b -u 9997]
and;
#X text 50 542 [netsend -b -u] instead of [udpreceive 9997] / [udpsend]
;
#X connect 1 0 6 0;
#X connect 1 0 17 0;
#X connect 2 0 5 0;
#X connect 3 0 27 0;
#X connect 5 0 27 0;
#X connect 6 0 8 0;
#X connect 7 0 6 1;
#X connect 9 0 11 0;
#X connect 10 0 9 1;
#X connect 12 0 15 0;
#X connect 12 1 4 0;
#X connect 12 1 24 0;
#X connect 12 2 3 1;
#X connect 13 0 14 0;
#X connect 14 0 3 0;
#X connect 16 0 0 0;
#X connect 17 0 13 0;
#X connect 18 0 9 0;
#X connect 18 0 0 0;
#X connect 19 0 20 0;
#X connect 20 0 22 0;
#X connect 20 1 16 0;
#X connect 20 2 21 0;
#X connect 24 0 25 0;
#X connect 25 0 5 0;
#X connect 26 0 27 0;
#X connect 27 0 12 0;
#X connect 28 0 18 0;
#X restore 335 70 pd OSC;
#X obj 318 71 bng 15 250 50 0 empty empty empty 17 7 0 10 -262144 -1
-1;
#X obj 161 137 dummy_text 0;
#X obj 161 157 dummy_text 1;
#X obj 161 177 dummy_text 2;
#X obj 161 197 dummy_text 3;
#X obj 161 217 dummy_text 4;
#X obj 277 135 dummy_video 0;
#X obj 277 155 dummy_video 1;
#X obj 277 175 dummy_video 2;
#X obj 277 195 dummy_video 3;
#X obj 277 215 dummy_video 4;
#X obj 161 237 dummy_text 5;
#X obj 277 235 dummy_video 5;
#X floatatom 127 261 5 0 0 0 x - -, f 5;
#X text 20 70 click here after enabling OSC leaning in i-score;
#X text 34 8 You need mrpeach/osc and iemnet or mrpeach/net objects
to use this patch.;
#X text 62 99 each [dummy_text] and [dummy_video] contains several
parameters that are exposed to i-score.;
#X obj 163 260 oscparam /test/position/x;
#X obj 39 36 declare -path osc -path iemnet -lib iemnet -path abs;
#X floatatom 127 281 5 0 0 0 x - -, f 5;
#X obj 163 280 oscparam /test/position/y;
#X floatatom 127 301 5 0 0 0 x - -, f 5;
#X obj 163 300 oscparam /test/position/z;
#X connect 1 0 0 0;
#X connect 14 0 18 0;
#X connect 18 0 14 0;
#X connect 20 0 21 0;
#X connect 21 0 20 0;
#X connect 22 0 23 0;
#X connect 23 0 22 0;
