#N canvas 107 58 530 494 10;
#X obj 32 -9 vsl 15 128 0 127 0 0 empty empty empty 0 -9 0 10 -262144
-1 -1 5300 1;
#X floatatom 31 142 5 0 0 0 - - -;
#X obj 63 44 minuit.num /node1/subnode1/control 11 float 0 127;
#X obj 101 102 minuit.sym /node1/subnode2/param hello symbol;
#X obj 126 148 minuit.any /node2/subthing1/subsub/troncol anything
;
#X obj 78 124 print SYM;
#X obj 88 172 print ANY;
#X obj 123 233 print NUM;
#X obj 151 193 minuit.num /node2/subthing2/subsub/marap 44 float 0
127;
#X msg 150 75 edit;
#X msg 180 126 edit;
#X msg 198 170 edit;
#X msg 105 9 edit;
#X obj 388 23 minuit.device 9998;
#X obj 62 9 + 0.1;
#X obj 63 73 - 0.1;
#X obj 33 253 vsl 15 128 0 127 0 0 empty empty empty 0 -9 0 10 -262144
-1 -1 0 1;
#X floatatom 40 424 5 0 0 0 - - -;
#X msg 108 267 edit;
#X obj 137 347 vsl 15 128 0 127 0 0 empty empty empty 0 -9 0 10 -262144
-1 -1 1300 1;
#X floatatom 139 482 5 0 0 0 - - -;
#X msg 213 349 edit;
#X obj 170 349 + 0.1;
#X obj 171 413 - 0.1;
#X obj 66 302 minuit.num /node2/subnode2/control 11 float 0 127;
#X obj 171 384 minuit.num /node1/subnode2/control 11 float 0 127;
#X obj 66 331 + 20.1;
#X floatatom 84 367 5 0 0 0 - - -;
#X floatatom 159 277 5 0 0 0 - - -;
#X obj 65 267 - 20.1;
#X connect 0 0 1 0;
#X connect 0 0 14 0;
#X connect 2 0 15 0;
#X connect 3 0 5 0;
#X connect 4 0 6 0;
#X connect 8 0 7 0;
#X connect 9 0 3 0;
#X connect 10 0 4 0;
#X connect 11 0 8 0;
#X connect 12 0 2 0;
#X connect 14 0 2 0;
#X connect 15 0 0 0;
#X connect 16 0 17 0;
#X connect 16 0 29 0;
#X connect 18 0 24 0;
#X connect 19 0 20 0;
#X connect 19 0 22 0;
#X connect 21 0 25 0;
#X connect 22 0 25 0;
#X connect 23 0 19 0;
#X connect 24 0 26 0;
#X connect 25 0 23 0;
#X connect 26 0 16 0;
#X connect 26 0 27 0;
#X connect 29 0 24 0;
#X connect 29 0 28 0;
