#N canvas 1048 122 818 616 10;
#X text 219 18 arguments: name value type range;
#X obj 61 16 inlet;
#X obj 195 56 r \$1-get;
#X obj 27 254 outlet;
#X obj 25 136 r \$1;
#X obj 85 176 any;
#N canvas 509 596 328 232 \$0-loadbangs 0;
#X obj 112 123 f \$2;
#X obj 50 28 loadbang;
#X obj 50 123 symbol \$1;
#X obj 145 123 symbol \$3;
#X obj 208 123 list;
#X obj 208 92 f \$4;
#X obj 240 92 f \$5;
#X obj 50 49 t b b b b b;
#X obj 112 167 s \$0-value;
#X obj 145 146 s \$0-type;
#X obj 208 167 s \$0-range;
#X obj 50 167 s \$0-name;
#N canvas 243 621 261 209 \$0-slash 0;
#X obj 14 44 s2l /;
#X obj 14 66 l2s /;
#X text 52 54 remove first / if it's there;
#X obj 15 147 l2s;
#X msg 41 130 symbol;
#X obj 14 87 t a b;
#X obj 14 109 prepend /;
#X text 90 115 make sure there's one;
#X obj 14 22 inlet;
#X obj 15 170 outlet;
#X connect 0 0 1 0;
#X connect 1 0 5 0;
#X connect 3 0 9 0;
#X connect 4 0 3 1;
#X connect 5 0 6 0;
#X connect 5 1 4 0;
#X connect 6 0 3 0;
#X connect 8 0 0 0;
#X restore 37 145 pd \$0-slash;
#X connect 0 0 8 0;
#X connect 1 0 7 0;
#X connect 2 0 12 0;
#X connect 3 0 9 0;
#X connect 4 0 10 0;
#X connect 5 0 4 0;
#X connect 6 0 4 1;
#X connect 7 0 2 0;
#X connect 7 1 0 0;
#X connect 7 2 3 0;
#X connect 7 3 5 0;
#X connect 7 4 6 0;
#X connect 12 0 11 0;
#X restore 24 425 pd \$0-loadbangs;
#X obj 108 129 r \$0-value;
#X obj 85 216 s \$0-value;
#X obj 234 158 any;
#X obj 249 136 r \$0-value;
#X msg 327 180 type;
#X obj 347 202 symbol;
#X obj 380 180 r \$0-type;
#N canvas 1107 644 226 185 \$0-send-gets 0;
#X obj 17 100 l2s :;
#X obj 17 121 list;
#X obj 17 146 s GLOBAL-MINUIT-GET;
#X obj 50 36 r \$0-name;
#X obj 17 57 symbol;
#X obj 17 16 inlet;
#X obj 101 62 inlet;
#X obj 134 104 inlet;
#X obj 17 79 list;
#X connect 0 0 1 0;
#X connect 1 0 2 0;
#X connect 3 0 4 1;
#X connect 4 0 8 0;
#X connect 5 0 4 0;
#X connect 6 0 8 1;
#X connect 7 0 1 1;
#X connect 8 0 0 0;
#X restore 195 342 pd \$0-send-gets;
#X obj 308 158 t b b b;
#X obj 392 243 t b b b;
#X msg 411 265 range;
#X obj 431 287 list;
#X obj 452 265 r \$0-range;
#X obj 361 369 r UPDATE-MINUIT-CONTROLS;
#X obj 361 435 s GLOBAL-MINUIT-CONTROLS;
#X obj 394 390 r \$0-name;
#X obj 361 412 symbol;
#X obj 195 136 t b b b;
#X obj 252 101 sel value type range;
#X obj 195 79 route bang;
#X obj 61 38 route edit;
#X obj 61 80 s pd-\$0-edit;
#X msg 61 59 vis 1;
#N canvas 503 55 822 171 \$0-edit 1;
#N canvas 52 354 450 300 \$0-GOPme 0;
#X obj 215 197 list;
#X obj 14 194 s \$0-value;
#X obj 87 194 s \$0-type;
#X obj 215 241 s \$0-range;
#X obj 87 171 symbol;
#X symbolatom 87 62 10 0 0 0 - - -;
#X obj 31 225 r \$0-name;
#X floatatom 200 63 5 0 0 0 - - -;
#X floatatom 250 63 5 0 0 0 - - -;
#X obj 215 174 f;
#X obj 250 174 f;
#X obj 250 140 t b f;
#X obj 200 139 t f b;
#X text 222 40 range;
#X text 174 63 min;
#X text 287 63 max;
#X text 98 40 type;
#X floatatom 14 62 5 0 0 0 - - -;
#X text 12 40 value;
#X obj 16 15 cnv 15 100 15 empty \$0-name-cnv /riff/bandpass 0 7 0
14 -262144 -66577 0;
#X obj 31 269 s \$0-name-cnv;
#X msg 31 246 label \$1;
#X obj 327 98 r \$0-range;
#X obj 327 119 unpack;
#X msg 327 160 set \$1;
#X msg 360 140 set \$1;
#X obj 105 103 r \$0-type;
#X msg 105 124 set \$1;
#X obj 22 135 r \$0-value;
#X msg 22 155 set \$1;
#X connect 0 0 3 0;
#X connect 4 0 2 0;
#X connect 5 0 4 0;
#X connect 6 0 21 0;
#X connect 7 0 12 0;
#X connect 8 0 11 0;
#X connect 9 0 0 0;
#X connect 10 0 0 1;
#X connect 11 0 9 0;
#X connect 11 1 10 0;
#X connect 12 0 9 0;
#X connect 12 1 10 0;
#X connect 17 0 1 0;
#X connect 21 0 20 0;
#X connect 22 0 23 0;
#X connect 23 0 24 0;
#X connect 23 1 25 0;
#X connect 24 0 7 0;
#X connect 25 0 8 0;
#X connect 26 0 27 0;
#X connect 27 0 5 0;
#X connect 28 0 29 0;
#X connect 29 0 17 0;
#X coords 0 -1 1 1 300 80 2 10 10;
#X restore -211 25 pd \$0-GOPme;
#X restore 26 397 pd \$0-edit;
#X obj 254 57 r /\$1-get;
#X obj 59 136 r /\$1;
#X obj 53 303 cnv 15 110 15 empty empty empty 20 12 0 14 -258113 -66577
0;
#X text 54 301 this needs zexy !!;
#X obj 166 406 cnv 15 165 35 empty empty empty 20 12 0 14 -261682 -66577
0;
#X text 166 407 Guilherme Carvalho (2009);
#X text 166 424 CICM - MSH Paris Nord - UP8;
#X msg 214 180 value;
#X connect 1 0 27 0;
#X connect 2 0 26 0;
#X connect 4 0 5 0;
#X connect 5 0 3 0;
#X connect 5 0 8 0;
#X connect 7 0 5 1;
#X connect 9 0 14 2;
#X connect 10 0 9 1;
#X connect 11 0 14 1;
#X connect 12 0 14 2;
#X connect 13 0 12 1;
#X connect 15 0 14 0;
#X connect 15 1 11 0;
#X connect 15 2 12 0;
#X connect 16 0 14 0;
#X connect 16 1 17 0;
#X connect 16 2 18 0;
#X connect 17 0 14 1;
#X connect 18 0 14 2;
#X connect 19 0 18 1;
#X connect 20 0 23 0;
#X connect 22 0 23 1;
#X connect 23 0 21 0;
#X connect 24 0 14 0;
#X connect 24 1 38 0;
#X connect 24 2 9 0;
#X connect 25 0 24 0;
#X connect 25 1 15 0;
#X connect 25 2 16 0;
#X connect 26 0 24 0;
#X connect 26 1 25 0;
#X connect 27 0 29 0;
#X connect 27 1 8 0;
#X connect 29 0 28 0;
#X connect 31 0 26 0;
#X connect 32 0 5 0;
#X connect 38 0 14 1;
