#N canvas 890 118 679 679 10;
#X obj 60 147 route /;
#X obj 342 261 s;
#X obj 349 239 any;
#X obj 562 479 r \$0-to-Minuit;
#X obj 330 152 s2l :;
#X obj 330 173 list split 1;
#X obj 330 194 t b a;
#N canvas 0 150 265 334 \$0-nodes 0;
#X obj 36 161 list;
#X obj 36 243 list;
#X msg 57 202 125;
#X obj 36 286 s \$0-to-Minuit;
#X text 118 121 nodes=OPEN_CURLY;
#X text 83 202 CLOSE_CURLY;
#X obj 61 22 inlet;
#X obj 36 181 list append node1 node2;
#X obj 61 64 t a b b;
#X obj 197 164 inlet;
#X obj 57 140 makefilename nodes=%c;
#X msg 57 119 123;
#X obj 57 222 makefilename %c;
#X msg 36 98 \$1;
#X connect 0 0 7 0;
#X connect 1 0 3 0;
#X connect 2 0 12 0;
#X connect 6 0 8 0;
#X connect 7 0 1 0;
#X connect 8 0 13 0;
#X connect 8 1 11 0;
#X connect 8 2 2 0;
#X connect 9 0 7 1;
#X connect 10 0 0 1;
#X connect 11 0 10 0;
#X connect 12 0 1 1;
#X connect 13 0 0 0;
#X restore 19 554 pd \$0-nodes;
#X obj 229 377 symbol;
#N canvas 822 509 352 346 \$0-attrb 0;
#X obj 23 109 list;
#X obj 23 197 list;
#X msg 44 155 125;
#X obj 66 -11 t a b b;
#X obj 23 24 symbol;
#X obj 66 -33 inlet;
#X obj 23 240 s \$0-to-Minuit;
#X text 106 69 attributes=OPEN_CURLY;
#X text 72 155 CLOSE_CURLY;
#X obj 224 117 inlet;
#X obj 44 87 makefilename attributes=%c;
#X msg 44 67 123;
#X obj 44 175 makefilename %c;
#X obj 23 134 list append value type range;
#X msg 23 45 \$1;
#X connect 0 0 13 0;
#X connect 1 0 6 0;
#X connect 2 0 12 0;
#X connect 3 0 4 0;
#X connect 3 1 11 0;
#X connect 3 2 2 0;
#X connect 4 0 14 0;
#X connect 5 0 3 0;
#X connect 9 0 13 1;
#X connect 10 0 0 1;
#X connect 11 0 10 0;
#X connect 12 0 1 1;
#X connect 13 0 1 0;
#X connect 14 0 0 0;
#X restore 293 554 pd \$0-attrb;
#X obj 195 211 s2l /;
#N canvas 33 134 269 299 \$0-dumpOSC 0;
#X obj 13 87 route 0;
#X msg 79 158 obj 10 10 dumpOSC \$1;
#X msg 13 108 9998;
#X obj 52 134 t b f;
#X msg 52 178 connect 1 0 0 0;
#X obj 13 13 loadbang;
#X msg 102 128 obj 10 50 s \$1;
#X obj 102 106 makefilename $%d-dumpOSC;
#X msg 137 53 clear;
#X obj 13 36 t b b b;
#N canvas 23 34 229 165 \$0-inside 0;
#X obj 10 50 s \$0-dumpOSC;
#X obj 10 10 dumpOSC 9998;
#X connect 1 0 0 0;
#X restore 142 23 pd \$0-inside;
#X obj 102 215 s pd-\$0-inside;
#X obj 68 262 outlet;
#X obj 68 240 r \$0-dumpOSC;
#X text 108 5 self-built - don't touch!;
#X msg 102 85 0;
#X obj 13 63 f \$2;
#X connect 0 0 2 0;
#X connect 0 1 3 0;
#X connect 1 0 11 0;
#X connect 2 0 3 0;
#X connect 3 0 4 0;
#X connect 3 1 1 0;
#X connect 4 0 11 0;
#X connect 5 0 9 0;
#X connect 6 0 11 0;
#X connect 7 0 6 0;
#X connect 8 0 11 0;
#X connect 9 0 16 0;
#X connect 9 1 15 0;
#X connect 9 2 8 0;
#X connect 13 0 12 0;
#X connect 15 0 7 0;
#X connect 16 0 0 0;
#X restore 60 18 pd \$0-dumpOSC;
#N canvas 856 623 302 195 \$0-to-Minuit 0;
#X obj 88 158 sendOSC;
#X msg 97 77 disconnect;
#X obj 88 8 loadbang;
#X msg 88 55 connect \$1 \$2;
#X text 116 111 IP address and;
#X text 116 123 port to talk to;
#N canvas 243 506 234 255 \$0-OSC-address 0;
#X obj 41 95 s2l;
#X obj 134 82 route 0;
#X msg 41 139 symbol 127.0.0.1;
#X obj 41 117 route bang;
#X msg 134 104 7002;
#X obj 41 175 pack s f;
#X obj 41 44 t b b;
#X obj 41 19 inlet;
#X obj 41 200 outlet;
#X obj 41 73 symbol \$3;
#X obj 134 61 f \$4;
#X connect 0 0 3 0;
#X connect 1 0 4 0;
#X connect 1 1 5 1;
#X connect 2 0 5 0;
#X connect 3 0 2 0;
#X connect 3 1 5 0;
#X connect 4 0 5 1;
#X connect 5 0 8 0;
#X connect 6 0 9 0;
#X connect 6 1 10 0;
#X connect 7 0 6 0;
#X connect 9 0 0 0;
#X connect 10 0 1 0;
#X restore 88 32 pd \$0-OSC-address;
#X obj 4 9 inlet;
#X obj 4 141 list trim;
#X obj 4 119 prepend send;
#X text 116 97 optional arguments (\$3 \$4):;
#X connect 1 0 0 0;
#X connect 2 0 6 0;
#X connect 3 0 0 0;
#X connect 6 0 3 0;
#X connect 7 0 9 0;
#X connect 8 0 0 0;
#X connect 9 0 8 0;
#X restore 458 628 pd \$0-to-Minuit;
#X msg 356 531 value type range;
#X obj 498 428 r GLOBAL-MINUIT-GET;
#N canvas 454 39 202 160 \$0-route-stuff 0;
#X obj 56 114 s;
#X obj 63 92 any;
#X obj 44 49 list split 1;
#X obj 44 70 t b a;
#X obj 44 26 inlet;
#X connect 1 0 0 0;
#X connect 2 0 3 0;
#X connect 2 1 1 1;
#X connect 3 0 1 0;
#X connect 3 1 0 1;
#X connect 4 0 2 0;
#X restore 271 94 pd \$0-route-stuff;
#X obj 38 324 s UPDATE-MINUIT-CONTROLS;
#X obj 19 219 t b b b;
#X obj 58 240 s \$0-clears;
#N canvas 162 623 250 215 \$0-top-nodes 0;
#X obj 24 22 r GLOBAL-MINUIT-CONTROLS;
#X obj 24 105 list;
#X obj 57 105 t a;
#X obj 24 64 s2l /;
#X msg 24 85 \$1;
#N canvas 28 122 250 455 \$0-rem-dup 0;
#X obj 48 356 any;
#X obj 61 136 list;
#X obj 61 178 sel some_sym;
#X obj 93 272 f;
#X obj 118 272 + 1;
#X msg 108 251 1;
#X msg 93 226 0;
#X obj 61 157 drip;
#X obj 27 400 list;
#X obj 46 289 f;
#X obj 46 331 sel 1;
#X obj 27 46 t b a b;
#X obj 46 310 < 1;
#X obj 92 422 s \$0-no-dup;
#X obj 120 119 r \$0-no-dup;
#X obj 193 63 bng 15 250 50 0 empty empty empty 17 7 0 10 -262144 -1
-1;
#X obj 61 112 t b s;
#X obj 46 69 drip;
#X obj 128 378 t a;
#X obj 193 331 t b b;
#X obj 27 428 outlet;
#X obj 27 24 inlet;
#X obj 46 90 t b a a b b;
#X obj 48 378 list prepend;
#X connect 0 0 23 0;
#X connect 1 0 7 0;
#X connect 2 0 3 0;
#X connect 3 0 4 0;
#X connect 3 0 9 1;
#X connect 4 0 3 1;
#X connect 5 0 3 1;
#X connect 6 0 9 1;
#X connect 7 0 2 0;
#X connect 8 0 20 0;
#X connect 9 0 12 0;
#X connect 10 0 0 0;
#X connect 11 0 8 0;
#X connect 11 1 17 0;
#X connect 11 2 15 0;
#X connect 12 0 10 0;
#X connect 14 0 1 1;
#X connect 15 0 19 0;
#X connect 16 0 1 0;
#X connect 16 1 2 1;
#X connect 17 0 22 0;
#X connect 18 0 23 1;
#X connect 19 0 23 0;
#X connect 19 1 23 1;
#X connect 21 0 11 0;
#X connect 22 0 9 0;
#X connect 22 1 16 0;
#X connect 22 2 0 1;
#X connect 22 3 6 0;
#X connect 22 4 5 0;
#X connect 23 0 8 1;
#X connect 23 0 13 0;
#X connect 23 0 18 0;
#X restore 24 126 pd \$0-rem-dup;
#X obj 70 78 r \$0-clears;
#X obj 24 150 outlet;
#X text 93 104 first elements of names;
#X connect 0 0 3 0;
#X connect 1 0 2 0;
#X connect 1 0 5 0;
#X connect 2 0 1 1;
#X connect 3 0 4 0;
#X connect 4 0 1 0;
#X connect 5 0 7 0;
#X connect 6 0 1 1;
#X restore 82 407 pd \$0-top-nodes;
#X msg 357 216 symbol \$1-get;
#N canvas 1 479 248 320 \$0-leaves 0;
#X obj 17 137 list;
#X obj 17 225 list;
#X msg 38 183 125;
#X obj 60 17 t a b b;
#X obj 17 52 symbol;
#X obj 17 162 list append leaf1 leaf2;
#X obj 17 274 s \$0-to-Minuit;
#X obj 60 -5 inlet;
#X obj 180 145 inlet;
#X text 103 96 leaves=OPEN_CURLY;
#X text 66 183 CLOSE_CURLY;
#X obj 38 115 makefilename leaves=%c;
#X msg 38 94 123;
#X obj 38 203 makefilename %c;
#X msg 17 73 \$1;
#X connect 0 0 5 0;
#X connect 1 0 6 0;
#X connect 2 0 13 0;
#X connect 3 0 4 0;
#X connect 3 1 12 0;
#X connect 3 2 2 0;
#X connect 4 0 14 0;
#X connect 5 0 1 0;
#X connect 7 0 3 0;
#X connect 8 0 5 1;
#X connect 11 0 0 1;
#X connect 12 0 11 0;
#X connect 13 0 1 1;
#X connect 14 0 0 0;
#X restore 198 554 pd \$0-leaves;
#X obj 303 395 t a b;
#X msg 330 416 0;
#X msg 19 462 symbol /;
#X obj 222 254 list length;
#X obj 222 275 - 1;
#X obj 195 298 list split 1;
#X text 268 333 last element;
#X obj 80 299 bng 15 250 50 0 empty empty empty 17 7 0 10 -262144 -1
-1;
#X obj 229 433 demux 1 1 1;
#X obj 364 416 t a b;
#X msg 391 437 1;
#X msg 434 454 2;
#X obj 195 190 t a a;
#X obj 99 173 symbol;
#X obj 303 352 list trim;
#N canvas 427 29 625 676 \$0-subnodes 0;
#X msg 148 466 merge \$1 \$2;
#X obj 148 490 coll;
#C restore;
#X obj 109 375 list;
#X obj 109 271 list length;
#X obj 109 317 until;
#X obj 195 254 t a b a;
#X obj 199 354 f;
#X obj 225 354 + 1;
#X msg 214 334 1;
#X msg 157 442 set merge \, adddollar \$1 \, adddollar \$2;
#X obj 109 337 t b b;
#X obj 199 374 t f f;
#X obj 226 394 + 1;
#X obj 199 417 pack f f;
#X obj 195 34 s2l /;
#X msg 392 473 clear;
#X obj 195 14 r GLOBAL-MINUIT-CONTROLS;
#N canvas 28 122 250 455 \$0-rem-dup 0;
#X obj 48 356 any;
#X obj 61 136 list;
#X obj 61 178 sel some_sym;
#X obj 93 272 f;
#X obj 118 272 + 1;
#X msg 108 251 1;
#X msg 93 226 0;
#X obj 61 157 drip;
#X obj 27 400 list;
#X obj 46 289 f;
#X obj 46 331 sel 1;
#X obj 27 46 t b a b;
#X obj 46 310 < 1;
#X obj 92 422 s \$0-no-dup;
#X obj 120 119 r \$0-no-dup;
#X obj 193 63 bng 15 250 50 0 empty empty empty 17 7 0 10 -262144 -1
-1;
#X obj 61 112 t b s;
#X obj 46 69 drip;
#X obj 128 377 t a;
#X obj 193 295 t b b;
#X obj 27 428 outlet;
#X obj 27 24 inlet;
#X obj 46 90 t b a a b b;
#X obj 48 377 list prepend;
#X connect 0 0 23 0;
#X connect 1 0 7 0;
#X connect 2 0 3 0;
#X connect 3 0 4 0;
#X connect 3 0 9 1;
#X connect 4 0 3 1;
#X connect 5 0 3 1;
#X connect 6 0 9 1;
#X connect 7 0 2 0;
#X connect 8 0 20 0;
#X connect 9 0 12 0;
#X connect 10 0 0 0;
#X connect 11 0 8 0;
#X connect 11 1 17 0;
#X connect 11 2 15 0;
#X connect 12 0 10 0;
#X connect 14 0 1 1;
#X connect 15 0 19 0;
#X connect 16 0 1 0;
#X connect 16 1 2 1;
#X connect 17 0 22 0;
#X connect 18 0 23 1;
#X connect 19 0 23 0;
#X connect 19 1 23 1;
#X connect 21 0 11 0;
#X connect 22 0 9 0;
#X connect 22 1 16 0;
#X connect 22 2 0 1;
#X connect 22 3 6 0;
#X connect 22 4 5 0;
#X connect 23 0 8 1;
#X connect 23 0 13 0;
#X connect 23 0 18 0;
#X restore 148 513 pd \$0-rem-dup;
#X obj 392 453 r \$0-clears;
#X obj 133 556 any;
#X obj 109 294 - 1;
#X obj 222 120 list length;
#X obj 195 164 list split 1;
#X msg 256 209 merge \$1 \$2;
#X obj 420 226 coll;
#C restore;
#N canvas 28 122 250 455 \$0-rem-dup 0;
#X obj 48 356 any;
#X obj 61 136 list;
#X obj 61 178 sel some_sym;
#X obj 93 272 f;
#X obj 118 272 + 1;
#X msg 108 251 1;
#X msg 93 226 0;
#X obj 61 157 drip;
#X obj 27 400 list;
#X obj 46 289 f;
#X obj 46 331 sel 1;
#X obj 27 46 t b a b;
#X obj 46 310 < 1;
#X obj 92 422 s \$0-no-dup;
#X obj 120 119 r \$0-no-dup;
#X obj 193 63 bng 15 250 50 0 empty empty empty 17 7 0 10 -262144 -1
-1;
#X obj 61 112 t b s;
#X obj 46 69 drip;
#X obj 129 377 t a;
#X obj 193 337 t b b;
#X obj 27 428 outlet;
#X obj 27 24 inlet;
#X obj 46 90 t b a a b b;
#X obj 48 377 list prepend;
#X connect 0 0 23 0;
#X connect 1 0 7 0;
#X connect 2 0 3 0;
#X connect 3 0 4 0;
#X connect 3 0 9 1;
#X connect 4 0 3 1;
#X connect 5 0 3 1;
#X connect 6 0 9 1;
#X connect 7 0 2 0;
#X connect 8 0 20 0;
#X connect 9 0 12 0;
#X connect 10 0 0 0;
#X connect 11 0 8 0;
#X connect 11 1 17 0;
#X connect 11 2 15 0;
#X connect 12 0 10 0;
#X connect 14 0 1 1;
#X connect 15 0 19 0;
#X connect 16 0 1 0;
#X connect 16 1 2 1;
#X connect 17 0 22 0;
#X connect 18 0 23 1;
#X connect 19 0 23 0;
#X connect 19 1 23 1;
#X connect 21 0 11 0;
#X connect 22 0 9 0;
#X connect 22 1 16 0;
#X connect 22 2 0 1;
#X connect 22 3 6 0;
#X connect 22 4 5 0;
#X connect 23 0 8 1;
#X connect 23 0 13 0;
#X connect 23 0 18 0;
#X restore 420 249 pd \$0-rem-dup;
#X obj 222 141 - 2;
#X obj 229 185 t a a;
#X obj 195 232 list;
#X msg 229 209 \$1;
#X msg 462 190 clear;
#X obj 462 170 r \$0-clears;
#X text 454 215 nodes that have leaves;
#X text 231 495 nodes that have subnodes;
#X text 282 191 last two;
#X obj 489 372 outlet;
#X obj 402 324 any;
#X obj 195 99 t a a;
#X obj 401 71 inlet;
#X obj 220 611 outlet;
#X text 267 612 to nodes;
#X text 485 392 to leaves;
#X obj 401 92 t b a b;
#X obj 555 627 outlet;
#X text 516 643 to attributes;
#X obj 402 350 route not_there;
#X obj 133 577 route not_there;
#X msg 440 307 not_there;
#X msg 181 539 not_there;
#X text 92 231 all but last one;
#X text 34 466 take them 2 by 2;
#X text 465 68 last element in;
#X text 456 83 ?namespace request;
#X text 127 13 whole name;
#X text 464 229 (and their leaves);
#X text 257 510 (and those subnodes);
#X obj 195 55 list split 2;
#X obj 195 77 list;
#X text 276 51 length one means;
#X text 277 67 it's a just leaf;
#X connect 0 0 1 0;
#X connect 1 0 17 0;
#X connect 2 0 0 0;
#X connect 3 0 20 0;
#X connect 4 0 10 0;
#X connect 5 0 3 0;
#X connect 5 1 8 0;
#X connect 5 2 2 1;
#X connect 6 0 7 0;
#X connect 6 0 11 0;
#X connect 7 0 6 1;
#X connect 8 0 6 1;
#X connect 9 0 0 0;
#X connect 10 0 2 0;
#X connect 10 1 6 0;
#X connect 11 0 13 0;
#X connect 11 1 12 0;
#X connect 12 0 13 1;
#X connect 13 0 9 0;
#X connect 14 0 56 0;
#X connect 15 0 1 0;
#X connect 16 0 14 0;
#X connect 17 0 19 1;
#X connect 18 0 15 0;
#X connect 19 0 46 0;
#X connect 20 0 4 0;
#X connect 21 0 26 0;
#X connect 22 0 28 0;
#X connect 22 1 27 0;
#X connect 23 0 24 0;
#X connect 24 0 25 0;
#X connect 25 0 36 1;
#X connect 26 0 22 1;
#X connect 27 0 29 0;
#X connect 27 1 23 0;
#X connect 28 0 5 0;
#X connect 29 0 28 1;
#X connect 30 0 24 0;
#X connect 31 0 30 0;
#X connect 36 0 45 0;
#X connect 37 0 22 0;
#X connect 37 1 21 0;
#X connect 38 0 42 0;
#X connect 42 0 36 0;
#X connect 42 1 24 0;
#X connect 42 1 1 0;
#X connect 42 2 47 0;
#X connect 42 2 48 0;
#X connect 45 0 19 0;
#X connect 45 1 35 0;
#X connect 46 0 43 0;
#X connect 46 1 39 0;
#X connect 47 0 36 1;
#X connect 48 0 19 1;
#X connect 56 0 57 0;
#X connect 56 1 57 1;
#X connect 57 0 37 0;
#X restore 303 373 pd \$0-subnodes;
#X obj 330 131 symbol;
#X text 503 116 ce qui n'est pas au point:;
#X text 469 147 si on a /node1/sub/param1;
#X text 497 206 + node1 - sub - param1;
#X text 593 222 param2;
#X text 592 259 param2;
#X text 496 243 + node2 - sub - param1;
#X text 467 185 on aura dans Virage:;
#X text 452 322 et encore:;
#X text 470 337 si on a /node1/sub;
#X text 499 353 et /node1/sub/param2;
#X text 471 373 ça ne marche pas vraiment;
#X text 470 279 mais des valeur attribuées;
#X text 469 295 seulenemt aux "bons" endroits;
#X obj 195 233 t l l;
#X obj 229 335 t b a;
#X obj 497 87 cnv 15 110 15 empty empty empty 20 12 0 14 -258113 -66577
0;
#X text 498 85 this needs zexy !!;
#X obj 26 618 cnv 15 170 35 empty empty empty 20 12 0 14 -261682 -66577
0;
#X text 26 636 CICM - MSH Paris Nord - UP8;
#X obj 560 618 spigot;
#X obj 601 618 tgl 17 0 empty empty empty 17 7 0 10 -262144 -1 -1 1
1;
#X obj 560 637 print toOSC;
#X obj 60 38 t a a;
#X obj 100 38 spigot;
#X obj 141 38 tgl 17 0 empty empty empty 17 7 0 10 -262144 -1 -1 1
1;
#X obj 100 57 print fromOSC;
#X obj 533 596 t a a;
#X text 514 163 /node2/sub/param2;
#X obj 276 611 realtime;
#X obj 276 652 print RealTime;
#X obj 276 589 t b;
#X obj 321 589 t b;
#X obj 276 631 spigot;
#X obj 317 631 tgl 17 0 empty empty empty 17 7 0 10 -262144 -1 -1 1
1;
#X obj 87 111 s \$0-rt1;
#X obj 220 588 r \$0-rt1;
#X obj 590 595 s \$0-rt2;
#X obj 348 589 r \$0-rt2;
#X msg 356 506 value;
#X obj 60 78 route Virage?namespace Virage?get;
#X text 322 39 IP address (default 127.0.0.1) \,;
#X text 323 54 port to send to (default 7002);
#X text 191 10 arguments (optional):;
#X text 323 24 port to listen to (default 9998) \,;
#X text 323 10 device name (same as in Virage \, default MinuitDevice1)
\,;
#N canvas 840 418 211 256 device_name 0;
#X obj 21 102 s2l;
#X obj 21 124 route bang;
#X obj 21 80 symbol \$1;
#X msg 21 146 symbol MinuitDevice1;
#X obj 21 189 l2s :;
#X obj 21 168 list append;
#X obj 57 47 t b a;
#X obj 57 22 inlet;
#X obj 21 212 outlet;
#X connect 0 0 1 0;
#X connect 1 0 3 0;
#X connect 1 1 5 0;
#X connect 2 0 0 0;
#X connect 3 0 5 0;
#X connect 4 0 8 0;
#X connect 5 0 4 0;
#X connect 6 0 2 0;
#X connect 6 1 5 1;
#X connect 7 0 6 0;
#X restore 572 553 pd device_name;
#X obj 533 576 prepend;
#X msg 589 521 namespace;
#X obj 562 500 t a b;
#X obj 498 449 t a b;
#X msg 525 470 get;
#X text 26 619 Guilherme Carvalho (2009-10);
#X obj 466 401 r GLOBAL-MINUIT-TRANSPORT;
#X connect 0 0 17 0;
#X connect 0 1 35 0;
#X connect 2 0 1 0;
#X connect 3 0 87 0;
#X connect 4 0 5 0;
#X connect 5 0 6 0;
#X connect 5 1 2 1;
#X connect 6 0 2 0;
#X connect 6 1 20 0;
#X connect 8 0 30 0;
#X connect 10 0 52 0;
#X connect 11 0 61 0;
#X connect 13 0 9 1;
#X connect 14 0 88 0;
#X connect 17 0 24 0;
#X connect 17 1 16 0;
#X connect 17 2 18 0;
#X connect 19 0 7 1;
#X connect 20 0 1 1;
#X connect 22 0 7 1;
#X connect 22 1 23 0;
#X connect 23 0 30 1;
#X connect 24 0 7 0;
#X connect 25 0 26 0;
#X connect 26 0 27 1;
#X connect 27 1 53 0;
#X connect 29 0 16 0;
#X connect 30 0 7 0;
#X connect 30 1 21 0;
#X connect 30 2 9 0;
#X connect 31 0 21 1;
#X connect 31 1 32 0;
#X connect 32 0 30 1;
#X connect 33 0 30 1;
#X connect 34 0 10 0;
#X connect 34 1 8 1;
#X connect 35 0 34 0;
#X connect 36 0 37 0;
#X connect 37 0 22 0;
#X connect 37 1 31 0;
#X connect 37 2 33 0;
#X connect 38 0 4 0;
#X connect 52 0 27 0;
#X connect 52 1 25 0;
#X connect 53 0 8 0;
#X connect 53 1 36 0;
#X connect 58 0 60 0;
#X connect 59 0 58 1;
#X connect 61 0 78 0;
#X connect 61 1 62 0;
#X connect 61 1 73 0;
#X connect 62 0 64 0;
#X connect 63 0 62 1;
#X connect 65 0 12 0;
#X connect 65 1 58 0;
#X connect 65 1 75 0;
#X connect 67 0 71 0;
#X connect 69 0 67 0;
#X connect 70 0 67 1;
#X connect 71 0 68 0;
#X connect 72 0 71 1;
#X connect 74 0 69 0;
#X connect 76 0 70 0;
#X connect 77 0 9 1;
#X connect 78 0 0 0;
#X connect 78 1 38 0;
#X connect 78 2 15 0;
#X connect 84 0 85 1;
#X connect 85 0 65 0;
#X connect 86 0 84 0;
#X connect 87 0 85 0;
#X connect 87 1 86 0;
#X connect 88 0 85 0;
#X connect 88 1 89 0;
#X connect 89 0 84 0;
#X connect 91 0 65 0;
