#N canvas 839 307 542 466 10;
#X obj 60 16 inlet;
#X obj 195 56 r \$1-get;
#X obj 27 254 outlet;
#X obj 28 136 r \$1;
#X obj 85 176 any;
#N canvas 509 596 328 232 \$0-loadbangs 0;
#X obj 50 28 loadbang;
#X obj 11 123 symbol \$1;
#X obj 145 123 symbol \$3;
#X obj 50 49 t b b b b b;
#X obj 145 146 s \$0-type;
#X obj 11 167 s \$0-name;
#X obj 82 123 symbol \$2;
#X obj 82 167 s \$0-value;
#N canvas 243 621 261 209 \$0-slash 0;
#X obj 14 44 s2l /;
#X obj 14 66 l2s /;
#X text 52 54 remove first / if it's there;
#X obj 15 147 l2s;
#X msg 41 130 symbol;
#X obj 14 87 t a b;
#X obj 14 109 prepend /;
#X text 90 115 make sure there's one;
#X obj 14 22 inlet;
#X obj 15 170 outlet;
#X connect 0 0 1 0;
#X connect 1 0 5 0;
#X connect 3 0 9 0;
#X connect 4 0 3 1;
#X connect 5 0 6 0;
#X connect 5 1 4 0;
#X connect 6 0 3 0;
#X connect 8 0 0 0;
#X restore 4 145 pd \$0-slash;
#X connect 0 0 3 0;
#X connect 1 0 8 0;
#X connect 2 0 4 0;
#X connect 3 0 1 0;
#X connect 3 1 6 0;
#X connect 3 2 2 0;
#X connect 6 0 7 0;
#X connect 8 0 5 0;
#X restore 24 425 pd \$0-loadbangs;
#X obj 234 158 any;
#X obj 249 136 r \$0-value;
#X msg 327 180 type;
#X obj 347 202 symbol;
#X obj 380 180 r \$0-type;
#N canvas 1159 670 208 186 \$0-send-gets 0;
#X obj 17 100 l2s :;
#X obj 17 121 list;
#X obj 17 146 s GLOBAL-MINUIT-GET;
#X obj 50 36 r \$0-name;
#X obj 17 57 symbol;
#X obj 17 16 inlet;
#X obj 101 62 inlet;
#X obj 134 104 inlet;
#X obj 17 79 list;
#X connect 0 0 1 0;
#X connect 1 0 2 0;
#X connect 3 0 4 1;
#X connect 4 0 8 0;
#X connect 5 0 4 0;
#X connect 6 0 8 1;
#X connect 7 0 1 1;
#X connect 8 0 0 0;
#X restore 195 342 pd \$0-send-gets;
#X obj 308 158 t b b b;
#X obj 361 369 r UPDATE-MINUIT-CONTROLS;
#X obj 361 435 s GLOBAL-MINUIT-CONTROLS;
#X obj 394 390 r \$0-name;
#X obj 361 412 symbol;
#X obj 195 136 t b b b;
#X obj 195 79 route bang;
#X obj 60 38 route edit;
#X obj 60 80 s pd-\$0-edit;
#X msg 60 59 vis 1;
#N canvas 503 55 322 140 \$0-edit 0;
#N canvas 52 354 450 300 \$0-GOPme 0;
#X obj 19 191 s \$0-value;
#X obj 228 220 s \$0-type;
#X obj 228 197 symbol;
#X symbolatom 228 61 10 0 0 0 - - -;
#X obj 31 225 r \$0-name;
#X text 239 39 type;
#X obj 20 16 cnv 15 100 15 empty \$0-name-cnv / 0 7 0 14 -262144 -66577
0;
#X obj 31 269 s \$0-name-cnv;
#X msg 31 246 label \$1;
#X symbolatom 19 61 10 0 0 0 - - -;
#X text 18 40 "value";
#X obj 330 23 r \$0-type;
#X msg 330 44 set \$1;
#X msg 58 124 set \$1;
#X obj 58 104 r \$0-value;
#X connect 2 0 1 0;
#X connect 3 0 2 0;
#X connect 4 0 8 0;
#X connect 8 0 7 0;
#X connect 9 0 0 0;
#X connect 11 0 12 0;
#X connect 12 0 3 0;
#X connect 13 0 9 0;
#X connect 14 0 13 0;
#X coords 0 -1 1 1 300 80 2 10 10;
#X restore -204 26 pd \$0-GOPme;
#X restore 26 397 pd \$0-edit;
#X obj 107 129 r \$0-value;
#X obj 85 216 s \$0-value;
#X text 219 17 arguments: name "value" type;
#X obj 252 101 sel value type;
#X obj 252 56 r /\$1-get;
#X obj 60 137 r /\$1;
#X obj 44 305 cnv 15 110 15 empty empty empty 20 12 0 14 -258113 -66577
0;
#X text 45 303 this needs zexy !!;
#X obj 157 408 cnv 15 165 35 empty empty empty 20 12 0 14 -261682 -66577
0;
#X text 157 409 Guilherme Carvalho (2009);
#X text 157 426 CICM - MSH Paris Nord - UP8;
#X msg 214 180 value;
#X connect 0 0 19 0;
#X connect 1 0 18 0;
#X connect 3 0 4 0;
#X connect 4 0 2 0;
#X connect 4 0 24 0;
#X connect 6 0 11 2;
#X connect 7 0 6 1;
#X connect 8 0 11 1;
#X connect 9 0 11 2;
#X connect 10 0 9 1;
#X connect 12 0 11 0;
#X connect 12 1 8 0;
#X connect 12 2 9 0;
#X connect 13 0 16 0;
#X connect 15 0 16 1;
#X connect 16 0 14 0;
#X connect 17 0 11 0;
#X connect 17 1 34 0;
#X connect 17 2 6 0;
#X connect 18 0 17 0;
#X connect 18 1 26 0;
#X connect 19 0 21 0;
#X connect 19 1 24 0;
#X connect 21 0 20 0;
#X connect 23 0 4 1;
#X connect 26 0 17 0;
#X connect 26 1 12 0;
#X connect 27 0 18 0;
#X connect 28 0 4 0;
#X connect 34 0 11 1;
